<?xml version="1.0" encoding="UTF-8" standalone="no"?>
<svg
   height="318"
   width="935"
   viewBox="-17.949615 -10.000025 121.20873 23.85015"
   version="1.1"
   id="svg8"
   sodipodi:docname="apple.svg"
   inkscape:version="1.2 (dc2aedaf03, 2022-05-15)"
   xmlns:inkscape="http://www.inkscape.org/namespaces/inkscape"
   xmlns:sodipodi="http://sodipodi.sourceforge.net/DTD/sodipodi-0.dtd"
   xmlns="http://www.w3.org/2000/svg"
   xmlns:svg="http://www.w3.org/2000/svg">
  <defs
     id="defs12" />
  <sodipodi:namedview
     id="namedview10"
     pagecolor="#ffffff"
     bordercolor="#999999"
     borderopacity="1"
     inkscape:showpageshadow="0"
     inkscape:pageopacity="0"
     inkscape:pagecheckerboard="0"
     inkscape:deskcolor="#d1d1d1"
     showgrid="false"
     inkscape:zoom="0.59"
     inkscape:cx="350.84746"
     inkscape:cy="193.22034"
     inkscape:window-width="1366"
     inkscape:window-height="715"
     inkscape:window-x="-8"
     inkscape:window-y="-8"
     inkscape:window-maximized="1"
     inkscape:current-layer="svg8" />
  <g
     id="g298"
     transform="translate(-17.017413,-18.254864)"
     inkscape:export-filename="apple.png"
     inkscape:export-xdpi="63.8432"
     inkscape:export-ydpi="63.8432">
    <path
       d="M 110.1348,1e-4 H 9.5347 c -0.3667,0 -0.729,0 -1.0948,0.002 C 8.1338,0.0041 7.8301,0.0099 7.521,0.0148 A 13.2148,13.2148 0 0 0 5.5171,0.1915 6.665,6.665 0 0 0 3.6162,0.8185 6.4378,6.4378 0 0 0 1.9976,1.9972 6.2584,6.2584 0 0 0 0.8194,3.6182 6.6012,6.6012 0 0 0 0.1944,5.5216 12.993,12.993 0 0 0 0.0152,7.5236 C 0.0059,7.8302 0.0049,8.1378 0,8.4445 v 23.1142 c 0.0049,0.3105 0.0059,0.6113 0.0152,0.922 a 12.9923,12.9923 0 0 0 0.1792,2.0018 6.5876,6.5876 0 0 0 0.625,1.9043 6.2078,6.2078 0 0 0 1.1782,1.6143 6.2744,6.2744 0 0 0 1.6186,1.1787 6.7008,6.7008 0 0 0 1.9009,0.6308 13.4551,13.4551 0 0 0 2.0039,0.1768 c 0.309,0.0068 0.6128,0.0107 0.919,0.0107 0.3657,0.002 0.728,0.002 1.0947,0.002 h 100.6 c 0.3595,0 0.7247,0 1.084,-0.002 0.3048,0 0.6173,-0.0039 0.922,-0.0107 a 13.279,13.279 0 0 0 2,-0.1768 6.8043,6.8043 0 0 0 1.9082,-0.6308 6.2774,6.2774 0 0 0 1.6172,-1.1787 6.3948,6.3948 0 0 0 1.1816,-1.6143 6.6041,6.6041 0 0 0 0.619,-1.9043 13.5064,13.5064 0 0 0 0.1857,-2.0019 c 0.004,-0.3106 0.004,-0.6114 0.004,-0.9219 0.008,-0.3633 0.008,-0.7246 0.008,-1.0938 V 9.5363 c 0,-0.3663 0,-0.7295 -0.008,-1.0918 0,-0.3067 0,-0.6143 -0.004,-0.921 a 13.5071,13.5071 0 0 0 -0.1856,-2.002 6.6177,6.6177 0 0 0 -0.6191,-1.9032 6.4662,6.4662 0 0 0 -2.7988,-2.7999 6.7675,6.7675 0 0 0 -1.9082,-0.627 13.044,13.044 0 0 0 -2,-0.1767 C 111.836,0.0098 111.5235,0.0039 111.2187,0.002 110.8594,0 110.4942,0 110.1347,0 Z"
       fill="#a6a6a6"
       id="path2" />
    <path
       d="m 8.4448,39.1251 c -0.3047,0 -0.602,-0.0039 -0.9043,-0.0107 A 12.6871,12.6871 0 0 1 5.6714,38.9514 5.8838,5.8838 0 0 1 4.0147,38.4034 5.4057,5.4057 0 0 1 2.6177,37.3868 5.3208,5.3208 0 0 1 1.5971,35.9903 5.7219,5.7219 0 0 1 1.0541,34.3331 12.4135,12.4135 0 0 1 0.8877,32.4581 C 0.8813,32.2472 0.873,31.5451 0.873,31.5451 V 8.4444 c 0,0 0.0088,-0.6914 0.0147,-0.8946 A 12.3704,12.3704 0 0 1 1.0532,5.6778 5.7555,5.7555 0 0 1 1.5967,4.0157 5.3735,5.3735 0 0 1 2.6118,2.6177 5.5654,5.5654 0 0 1 4.0142,1.5952 5.823,5.823 0 0 1 5.6675,1.0513 12.5859,12.5859 0 0 1 7.543,0.8874 L 8.4453,0.875 H 111.214 l 0.913,0.0127 a 12.385,12.385 0 0 1 1.8585,0.1626 5.9383,5.9383 0 0 1 1.6709,0.5479 5.5937,5.5937 0 0 1 2.415,2.4199 5.7627,5.7627 0 0 1 0.5352,1.649 12.995,12.995 0 0 1 0.1738,1.8871 c 0.003,0.2832 0.003,0.5874 0.003,0.8902 0.008,0.375 0.008,0.7319 0.008,1.0918 v 20.9286 c 0,0.3633 0,0.7178 -0.008,1.0752 0,0.3252 0,0.6231 -0.004,0.9297 a 12.7313,12.7313 0 0 1 -0.171,1.8535 5.739,5.739 0 0 1 -0.54,1.67 5.4803,5.4803 0 0 1 -1.0155,1.3857 5.4129,5.4129 0 0 1 -1.3994,1.0225 5.8617,5.8617 0 0 1 -1.668,0.5498 12.5422,12.5422 0 0 1 -1.8692,0.1631 39.1495,39.1495 0 0 1 -0.8974,0.0107 l -1.084,0.002 z"
       id="path4" />
    <path
       d="m 24.7689,20.3008 a 4.9488,4.9488 0 0 1 2.3565,-4.152 5.0657,5.0657 0 0 0 -3.9911,-2.1577 c -1.6793,-0.1763 -3.3072,1.0048 -4.163,1.0048 -0.8722,0 -2.1897,-0.9873 -3.6084,-0.9581 a 5.3153,5.3153 0 0 0 -4.473,2.7278 c -1.934,3.3485 -0.4914,8.2695 1.3613,10.9761 0.9269,1.3254 2.0101,2.8058 3.4276,2.7533 1.387,-0.0575 1.905,-0.8845 3.5794,-0.8845 1.6588,0 2.1448,0.8845 3.591,0.8511 1.4884,-0.0241 2.4261,-1.3312 3.3205,-2.6691 A 10.962,10.962 0 0 0 27.6881,24.7 4.782,4.782 0 0 1 24.7689,20.3008 Z M 22.0373,12.211 a 4.8725,4.8725 0 0 0 1.1145,-3.4906 4.9575,4.9575 0 0 0 -3.2076,1.6596 4.6363,4.6363 0 0 0 -1.1437,3.3614 4.099,4.099 0 0 0 3.2368,-1.5304 z m 20.265,14.9288 h -4.7334 l -1.1367,3.3564 h -2.005 l 4.4835,-12.418 h 2.083 l 4.4834,12.418 H 43.438 Z m -4.2432,-1.5489 h 3.752 l -1.8496,-5.4472 h -0.0518 z m 17.1006,0.379 c 0,2.8134 -1.5059,4.621 -3.7783,4.621 a 3.0693,3.0693 0 0 1 -2.8487,-1.584 h -0.043 v 4.4844 H 46.6313 V 21.4425 h 1.7989 v 1.5059 h 0.0342 a 3.2116,3.2116 0 0 1 2.8828,-1.6006 c 2.2978,0 3.8125,1.8164 3.8125,4.622 z m -1.9102,0 c 0,-1.833 -0.9472,-3.0381 -2.3925,-3.0381 -1.42,0 -2.375,1.2304 -2.375,3.038 0,1.8243 0.955,3.046 2.375,3.046 1.4453,0 2.3925,-1.1963 2.3925,-3.046 z m 11.875,0 c 0,2.8134 -1.5058,4.621 -3.7783,4.621 a 3.0693,3.0693 0 0 1 -2.8486,-1.584 h -0.043 v 4.4844 H 56.5962 V 21.4425 h 1.7988 v 1.5059 h 0.0342 a 3.2116,3.2116 0 0 1 2.8828,-1.6006 c 2.2979,0 3.8125,1.8164 3.8125,4.622 z m -1.9101,0 c 0,-1.833 -0.9473,-3.0381 -2.3926,-3.0381 -1.42,0 -2.375,1.2304 -2.375,3.038 0,1.8243 0.955,3.046 2.375,3.046 1.4453,0 2.3926,-1.1963 2.3926,-3.046 z m 8.4961,1.0664 c 0.1377,1.2314 1.334,2.04 2.9687,2.04 1.5664,0 2.6934,-0.8086 2.6934,-1.919 0,-0.9639 -0.6797,-1.541 -2.289,-1.9365 l -1.6095,-0.3877 c -2.2802,-0.5508 -3.3388,-1.6172 -3.3388,-3.3477 0,-2.1426 1.8672,-3.6142 4.5185,-3.6142 2.624,0 4.4229,1.4716 4.4834,3.6142 h -1.876 c -0.1123,-1.2392 -1.1367,-1.9873 -2.6338,-1.9873 -1.497,0 -2.5214,0.7569 -2.5214,1.8584 0,0.878 0.6543,1.3946 2.2548,1.79 l 1.3682,0.336 c 2.5478,0.6025 3.6065,1.626 3.6065,3.4423 0,2.3233 -1.8506,3.7784 -4.794,3.7784 -2.754,0 -4.6133,-1.421 -4.7334,-3.667 z M 83.3462,19.3 v 2.1425 h 1.7217 v 1.4717 h -1.7217 v 4.9912 c 0,0.7754 0.3447,1.1367 1.1016,1.1367 a 5.8075,5.8075 0 0 0 0.6113,-0.043 v 1.463 a 5.1035,5.1035 0 0 1 -1.0322,0.0858 c -1.833,0 -2.5479,-0.6884 -2.5479,-2.4443 V 22.9142 H 80.1626 V 21.4425 H 81.479 V 19.3 Z m 2.7188,6.6699 c 0,-2.8487 1.6777,-4.6387 4.294,-4.6387 2.625,0 4.2949,1.79 4.2949,4.6387 0,2.8564 -1.6612,4.6386 -4.295,4.6386 -2.6328,0 -4.2939,-1.7822 -4.2939,-4.6386 z m 6.6953,0 c 0,-1.9541 -0.8955,-3.1075 -2.4014,-3.1075 -1.5058,0 -2.4004,1.1621 -2.4004,3.1075 0,1.9619 0.8946,3.1064 2.4004,3.1064 1.5059,0 2.4014,-1.1445 2.4014,-3.1064 z m 3.4257,-4.5274 h 1.7725 v 1.541 h 0.043 a 2.1594,2.1594 0 0 1 2.1778,-1.6357 2.8662,2.8662 0 0 1 0.6367,0.0693 v 1.7383 a 2.598,2.598 0 0 0 -0.835,-0.1123 1.8726,1.8726 0 0 0 -1.9365,2.083 v 5.3701 H 96.186 Z m 13.1983,6.3945 c -0.25,1.6436 -1.8506,2.7715 -3.8984,2.7715 -2.6338,0 -4.2686,-1.7646 -4.2686,-4.5957 0,-2.8398 1.6436,-4.6816 4.1904,-4.6816 2.505,0 4.0801,1.7207 4.0801,4.4658 v 0.6367 h -6.3945 v 0.1123 a 2.358,2.358 0 0 0 2.4355,2.5645 2.0483,2.0483 0 0 0 2.0909,-1.2735 z m -6.2822,-2.7021 h 4.5263 a 2.1773,2.1773 0 0 0 -2.2207,-2.2979 2.292,2.292 0 0 0 -2.3056,2.2979 z M 37.8262,8.7311 a 2.6396,2.6396 0 0 1 2.8076,2.9649 c 0,1.9062 -1.0303,3.002 -2.8076,3.002 H 35.6709 V 8.731 Z m -1.2285,5.123 h 1.125 a 1.8759,1.8759 0 0 0 1.9677,-2.146 1.881,1.881 0 0 0 -1.9677,-2.1338 h -1.125 z m 5.083,-1.4096 a 2.1332,2.1332 0 1 1 4.247,0 2.1336,2.1336 0 1 1 -4.247,0 z m 3.333,0 c 0,-0.9761 -0.4385,-1.5469 -1.208,-1.5469 -0.7725,0 -1.207,0.5708 -1.207,1.5469 0,0.9839 0.4346,1.5503 1.207,1.5503 0.7695,0 1.208,-0.5703 1.208,-1.5503 z m 6.5596,2.2534 h -0.922 l -0.9306,-3.3164 h -0.0703 l -0.9267,3.3164 h -0.9131 l -1.2412,-4.503 h 0.9013 l 0.8067,3.436 h 0.0664 l 0.9258,-3.436 h 0.8525 l 0.9258,3.436 h 0.0703 l 0.8027,-3.436 h 0.8887 z m 2.2802,-4.5029 h 0.8555 v 0.7153 h 0.0664 a 1.348,1.348 0 0 1 1.3438,-0.8023 1.4646,1.4646 0 0 1 1.5586,1.6748 v 2.915 H 56.7891 V 12.006 c 0,-0.7236 -0.3145,-1.0835 -0.9717,-1.0835 a 1.033,1.033 0 0 0 -1.0752,1.1411 v 2.6343 h -0.8887 z m 5.2403,-1.7579 h 0.8886 v 6.2608 h -0.8886 z m 2.124,4.0074 a 2.1335,2.1335 0 1 1 4.2476,0 2.1338,2.1338 0 1 1 -4.2476,0 z m 3.333,0 c 0,-0.9761 -0.4385,-1.5469 -1.208,-1.5469 -0.7725,0 -1.207,0.5708 -1.207,1.5469 0,0.9839 0.4346,1.5503 1.207,1.5503 0.7695,0 1.208,-0.5703 1.208,-1.5503 z m 1.8501,0.98 c 0,-0.8106 0.6035,-1.2779 1.6748,-1.3443 l 1.2197,-0.0703 v -0.3887 c 0,-0.4756 -0.3144,-0.7441 -0.9218,-0.7441 -0.4961,0 -0.8399,0.1821 -0.9385,0.5005 h -0.8604 c 0.0908,-0.7735 0.8184,-1.2695 1.8399,-1.2695 1.1289,0 1.7656,0.562 1.7656,1.5131 v 3.0767 h -0.8555 v -0.6328 h -0.0703 a 1.515,1.515 0 0 1 -1.3525,0.707 1.3603,1.3603 0 0 1 -1.501,-1.3476 z m 2.8945,-0.3848 v -0.3765 l -1.0996,0.0703 c -0.6201,0.0415 -0.9014,0.2525 -0.9014,0.6494 0,0.4053 0.3516,0.6412 0.835,0.6412 a 1.0615,1.0615 0 0 0 1.166,-0.9844 z m 2.0528,-0.5952 c 0,-1.4229 0.7314,-2.3242 1.8691,-2.3242 a 1.484,1.484 0 0 1 1.3809,0.79 h 0.0664 V 8.437 h 0.8886 v 6.2608 h -0.8515 v -0.7115 h -0.0703 a 1.5628,1.5628 0 0 1 -1.414,0.7857 c -1.1456,0 -1.8692,-0.9014 -1.8692,-2.3276 z m 0.918,0 c 0,0.955 0.4502,1.5298 1.203,1.5298 0.749,0 1.212,-0.583 1.212,-1.526 0,-0.9384 -0.4678,-1.5297 -1.212,-1.5297 -0.748,0 -1.203,0.5786 -1.203,1.5259 z m 6.9638,0 a 2.1332,2.1332 0 1 1 4.247,0 2.1336,2.1336 0 1 1 -4.247,0 z m 3.333,0 c 0,-0.9761 -0.4385,-1.5469 -1.208,-1.5469 -0.7725,0 -1.207,0.5708 -1.207,1.5469 0,0.9839 0.4346,1.5503 1.207,1.5503 0.7695,0 1.208,-0.5703 1.208,-1.5503 z m 2.1064,-2.2495 h 0.8555 v 0.7153 h 0.0664 a 1.348,1.348 0 0 1 1.3438,-0.8023 1.4646,1.4646 0 0 1 1.5586,1.6748 v 2.915 H 87.605 V 12.006 c 0,-0.7236 -0.3145,-1.0835 -0.9717,-1.0835 a 1.033,1.033 0 0 0 -1.0752,1.1411 v 2.6343 h -0.8886 z m 8.8458,-1.1211 v 1.1416 h 0.9756 v 0.7485 h -0.9756 v 2.3154 c 0,0.4717 0.1943,0.6783 0.6367,0.6783 a 2.9666,2.9666 0 0 0 0.3388,-0.0206 v 0.7403 a 2.9155,2.9155 0 0 1 -0.4834,0.0454 c -0.9882,0 -1.3818,-0.3477 -1.3818,-1.2158 v -2.543 h -0.7148 v -0.7486 h 0.7148 V 9.074 Z m 2.1894,-0.6368 h 0.8809 v 2.4815 h 0.0703 a 1.3856,1.3856 0 0 1 1.373,-0.8067 1.4834,1.4834 0 0 1 1.5508,1.6788 v 2.9072 H 98.69 v -2.688 c 0,-0.7193 -0.335,-1.0835 -0.9629,-1.0835 a 1.052,1.052 0 0 0 -1.1338,1.1416 v 2.6299 h -0.8887 z m 9.0567,5.0449 a 1.828,1.828 0 0 1 -1.9512,1.3028 2.0453,2.0453 0 0 1 -2.0801,-2.3242 2.0768,2.0768 0 0 1 2.0762,-2.3526 c 1.2529,0 2.0088,0.856 2.0088,2.27 v 0.3101 h -3.1797 v 0.0498 a 1.1902,1.1902 0 0 0 1.1992,1.29 1.0793,1.0793 0 0 0 1.0713,-0.5459 z m -3.126,-1.4511 h 2.2744 a 1.0865,1.0865 0 0 0 -1.1084,-1.1665 1.1516,1.1516 0 0 0 -1.166,1.1665 z"
       fill="#ffffff"
       id="path6" />
  </g>
</svg>
